<?xml version="1.0" encoding="utf-8"?>
<!-- Generator: Adobe Illustrator 16.0.0, SVG Export Plug-In . SVG Version: 6.00 Build 0)  -->
<!DOCTYPE svg PUBLIC "-//W3C//DTD SVG 1.1//EN" "http://www.w3.org/Graphics/SVG/1.1/DTD/svg11.dtd">
<svg version="1.1" id="Layer_1" xmlns="http://www.w3.org/2000/svg" xmlns:xlink="http://www.w3.org/1999/xlink" x="0px" y="0px"
	 width="492px" height="98px" viewBox="0 0 492 98" enable-background="new 0 0 492 98" xml:space="preserve">
<polygon fill="#39A772" points="467.167,87.704 16.921,87.704 29.972,15.704 480.218,15.704 "/>
<polygon opacity="0.9" fill="#002345" points="463.167,82 12.921,82 25.972,10 476.218,10 "/>
<g>
	<g opacity="0.75">
		<text transform="matrix(1 0 0 1 63.3672 60.6143)" fill="#FFFFFF" font-family="'MuseoSans-300Italic'" font-size="40.2664">DECHADOU</text>
		<text transform="matrix(1 0 0 1 294.7686 60.6143)" fill="#FFFFFF" font-family="'MuseoSans-700Italic'" font-size="40.2664">SLIDER</text>
		<text transform="matrix(1 0 0 1 439.0332 55.3945)" fill="#FFFFFF" font-family="'MuseoSans-300Italic'" font-size="26.1012">&gt;</text>
		<text transform="matrix(1 0 0 1 40.3359 54.959)" fill="#FFFFFF" font-family="'MuseoSans-300Italic'" font-size="26.1012">&lt;</text>
	</g>
	<g>
		<g>
			<g>
				<text transform="matrix(1 0 0 1 63.3672 59.6143)" fill="#39A772" font-family="'MuseoSans-300Italic'" font-size="40.2664">DECHADOU</text>
			</g>
			<g>
				<text transform="matrix(1 0 0 1 294.7686 59.6143)" fill="#39A772" font-family="'MuseoSans-700Italic'" font-size="40.2664">SLIDER</text>
			</g>
			<g>
				<text transform="matrix(1 0 0 1 439.0332 54.3945)" fill="#39A772" font-family="'MuseoSans-300Italic'" font-size="26.1012">&gt;</text>
			</g>
			<g>
				<text transform="matrix(1 0 0 1 40.3359 53.959)" fill="#39A772" font-family="'MuseoSans-300Italic'" font-size="26.1012">&lt;</text>
			</g>
		</g>
	</g>
</g>
</svg>
